<svg width="24" height="24" viewBox="0 0 24 24" fill="none" xmlns="http://www.w3.org/2000/svg">
<g id="Alert">
<path id="Shape" fill-rule="evenodd" clip-rule="evenodd" d="M12.0031 1.5C13.1419 1.5 13.7324 2.26677 13.9232 2.60061L23.7045 19.2265C24.7509 21.3843 22.7125 22.5 21.7737 22.5H2.22061C0.662992 22.5 -0.588779 20.8674 0.290981 19.2265L10.0723 2.60061C10.3723 2.08982 10.8644 1.5 12.0031 1.5ZM12.9858 15.1328H11.0796L10.6812 7.5H13.3843L12.9858 15.1328ZM10.6499 17.8047C10.6499 17.3672 10.7671 17.0365 11.0015 16.8125C11.2358 16.5885 11.577 16.4766 12.0249 16.4766C12.4572 16.4766 12.7918 16.5911 13.0288 16.8203C13.2658 17.0495 13.3843 17.3776 13.3843 17.8047C13.3843 18.2161 13.2645 18.5404 13.0249 18.7773C12.7853 19.0143 12.452 19.1328 12.0249 19.1328C11.5874 19.1328 11.2489 19.0169 11.0093 18.7852C10.7697 18.5534 10.6499 18.2266 10.6499 17.8047Z" fill="#EDB72B"/>
</g>
</svg>
