<svg width="16" height="16" viewBox="0 0 16 16" fill="none" xmlns="http://www.w3.org/2000/svg">
<g id="Icons/Alert/Background shape/16px/Alert">
<path id="Mask" fill-rule="evenodd" clip-rule="evenodd" d="M15.7966 12.8905L9.28229 1.62195C9.02504 1.15633 8.53189 0.870636 8 0.879089C7.86904 0.877356 7.73841 0.892724 7.61143 0.924803C7.23326 1.02912 6.91238 1.28007 6.72 1.62195L0.194286 12.8905C0.0675375 13.1176 0.000677122 13.3733 0 13.6334C0 14.4539 0.665177 15.1191 1.48571 15.1191H14.5143C14.7761 15.1199 15.0331 15.0488 15.2571 14.9134C15.5982 14.7178 15.847 14.3942 15.9483 14.0143C16.0495 13.6345 15.9949 13.2299 15.7966 12.8905ZM8 12.4905C7.54241 12.4874 7.17402 12.1138 7.17718 11.6562C7.18034 11.1987 7.55385 10.8303 8.01144 10.8334C8.46903 10.8366 8.83743 11.2101 8.83429 11.6677C8.83051 12.125 8.45736 12.4931 8 12.4905ZM8.57143 5.49623H7.42857V9.49623H8.57143V5.49623Z" fill="#D50032"/>
</g>
</svg>
