<svg xmlns="http://www.w3.org/2000/svg" xmlns:xlink="http://www.w3.org/1999/xlink" width="160" height="29" viewBox="0 0 160 29">
  <defs>
    <polygon id="logo-united-a" points="4.467 4.475 4.467 .73 .845 .73 .845 4.475 4.467 4.475"/>
  </defs>
  <g fill="none" fill-rule="evenodd">
    <polygon fill="#FFF" points="35.172 8.276 35.172 16.747 27.206 8.276 23.793 8.276 23.793 22.759 27.93 22.759 27.93 13.395 35.945 22.759 39.31 22.759 39.31 8.276"/>
    <polygon fill="#FFF" points="48.621 11.243 48.621 8.276 52.759 8.276 52.759 22.759 48.621 22.759"/>
    <polygon fill="#FFF" points="84.827 17.186 84.827 19.416 94.138 19.416 94.138 22.759 81.724 22.759 81.724 8.276 94.138 8.276 94.138 11.618 84.827 11.618 84.827 13.844 93.103 13.844 93.103 17.186"/>
    <polygon fill="#FFF" points="69.947 11.618 69.947 22.759 65.491 22.759 65.491 11.618 61.034 11.618 61.034 8.276 75.517 8.276 75.517 11.618"/>
    <path fill="#FFF" d="M102.694692 8.62613126L102.694692 23.0770136 109.341121 23.0770136C115.253557 23.0770136 118.155931 20.4784686 118.155931 15.8300895 118.155931 11.4395061 115.539573 8.62613126 109.341121 8.62613126L102.694692 8.62613126zM105.903758 11.9604683L109.24808 11.9604683C112.583786 11.9604683 113.938055 13.2225932 113.938055 15.8578383 113.938055 18.5539519 112.546741 19.7408864 109.24808 19.7408864L105.903758 19.7408864 105.903758 11.9604683zM16.0472275 16.4719829C16.0472275 21.0057861 13.0940249 23.278506 8.04997547 23.278506 2.99731113 23.278506.000172298869 21.0129471.000172298869 16.5006269L.000172298869 8.62622077 4.27921472 8.62622077 4.27921472 16.5095781C4.27921472 18.7688712 5.51373612 19.8967274 8.06289789 19.8841957 10.5767384 19.8779298 11.7664621 18.7787175 11.7664621 16.5355367L11.7664621 8.62622077 16.0472275 8.62622077 16.0472275 16.4719829zM128.288828 3.62954892C130.698427 3.52034379 131.976885 4.94090563 132.396433 6.67744625 133.226913 10.1272543 131.372977 13.5072426 128.288828 15.6814989L128.290551 14.4542838C128.643763 14.2582517 129.598299 13.4427937 129.855024 13.0149244 129.463044 12.8717045 128.322426 12.7687653 128.322426 12.7768214L128.322426 11.2175153C129.394125 11.1727591 130.172054 11.3123985 130.873311 11.4788915 131.166219 11.0026856 131.341102 10.5989846 131.450512 10.0574346 130.705319 9.91331962 129.394125 9.95091483 128.322426 10.0753371L128.322426 8.98239063C129.394125 8.74339251 130.996504 8.56168233 131.717575 8.64582399 131.773572 8.30120124 131.768403 7.86796121 131.658993 7.48126763 130.94223 7.42039919 129.394125 7.63880946 128.322426 7.89481493L128.322426 7.00864214C129.394125 6.68013162 130.757009 6.36594308 131.477218 6.31760639 131.413468 6.00431297 131.235138 5.63552187 131.012873 5.4314336 130.341769 5.48335079 129.394125 5.75994411 128.322426 6.02311058L128.322426 5.19780622C128.322426 4.97223497 129.755952 4.71891487 130.279741 4.68490015 129.996309 4.48528749 129.086571 4.21316979 128.297443 4.2695626L128.288828 3.62954892z"/>
    <path fill="#FFF" d="M130.32652,3.2706937 C135.899527,2.2019156 138.436628,4.75928496 136.92729,10.9991946 C135.525639,16.1327309 132.601727,19.583434 128.322684,22.2258402 L128.322684,19.525251 C128.322684,19.7382905 128.875764,20.153628 129.09286,20.5295801 C129.57099,20.2861064 130.197296,19.8152712 130.523802,19.4411093 C130.185235,18.9389447 128.930038,17.6642881 128.294255,17.266853 C128.292532,17.2758043 128.290809,16.9311815 128.292532,16.9195449 C128.873179,16.59551 129.877682,15.8274936 130.312736,15.2268654 C131.027777,15.5482149 132.43632,16.7476811 132.755934,17.180026 C133.259047,16.6492175 133.864677,15.7827374 134.117095,15.1973263 C133.551955,14.6871056 132.451827,14.0282943 131.643745,13.7320082 C132.089999,13.2504315 132.537115,12.4546663 132.739566,11.8934235 C133.439099,12.0545458 134.721864,12.4403443 135.31888,12.8046598 C135.613511,12.2622146 135.838361,11.5488007 135.989984,10.7745184 C135.387799,10.5238837 134.150694,10.2857807 133.350365,10.1989537 C133.452883,9.85612119 133.532141,8.97621427 133.511465,8.61547929 C134.422064,8.59310118 135.687599,8.72916004 136.358704,8.8992336 C136.456052,8.47494481 136.484482,7.97994122 136.404363,7.48135714 C135.622987,7.35514465 134.314377,7.27547861 133.421008,7.34798366 C133.417562,6.96308032 133.288338,6.39378144 133.154806,6.12524423 C133.864677,6.00440249 135.299927,5.9900805 136.1261,6.09212464 C135.996876,5.68036759 135.838361,5.26413491 135.475672,4.95621225 C134.898471,4.90339993 133.574354,4.96426836 132.755934,5.1182297 C132.600004,4.81209728 132.337248,4.48448188 132.059847,4.29113509 C132.587943,4.12285177 133.684625,4.00559053 134.285948,4.04497598 C133.797481,3.78270464 132.875682,3.53654553 131.45077,3.73168257 C130.926982,3.3825842 130.32652,3.2706937 130.32652,3.2706937"/>
    <path fill="#FFF" d="M155.069241,28.6326904 L155.069241,0.845355135 L128.322426,0.845355135 L128.322426,2.92293801 C132.601468,1.64201552 139.908663,2.36885624 144.391018,6.55535133 C148.032555,9.9550324 150.519689,14.1862837 150.82552,20.1236414 C151.010741,23.736362 150.103587,27.5200513 149.247262,28.6326904 L155.069241,28.6326904 Z"/>
    <path fill="#FFF" d="M139.947603,6.76839085 C139.437598,6.53655372 138.66053,6.29934586 138.03767,6.26443602 C138.152249,6.66097596 138.209107,7.14434294 138.222891,7.65545876 C138.849198,7.73691505 139.919174,8.04931334 140.466222,8.29457732 C140.669535,8.95428373 140.683319,9.52447774 140.67815,10.168967 C140.070797,9.80644181 138.956884,9.34634806 138.16431,9.19596722 C138.140188,9.7688466 138.010964,10.5995217 137.820573,11.2198427 C138.648469,11.4955409 139.846808,12.1310789 140.405056,12.5491018 C140.295647,13.4003648 140.00963,14.3635183 139.604728,15.1745006 C138.998236,14.6123627 137.774053,13.820178 136.992677,13.473765 C136.760935,14.2283545 136.095862,15.6650286 135.631516,16.2423836 C136.318127,16.6765187 137.460469,17.724709 137.901554,18.2957981 C137.393272,19.2428393 136.796257,19.9992191 136.139798,20.5720985 C135.788308,19.9106019 134.898384,18.7003942 134.273801,18.1848027 C133.772411,19.0503877 132.577519,20.3116174 131.756515,20.8469016 C132.313901,21.4135151 133.075462,22.5261543 133.417476,23.1634826 C132.951407,23.6611716 132.100251,24.2805974 131.385211,24.6619202 C131.124178,23.7891743 130.720137,22.8788332 130.245454,22.1296143 C129.782831,22.6201423 129.394297,23.0238433 128.322598,23.4239637 L128.322598,27.3651948 C133.67334,25.5024417 139.714999,20.1576561 141.24329,12.9268442 C141.991929,9.40811162 141.231229,7.27503105 140.52825,6.11316006 C139.372125,4.21370686 137.25371,3.8350694 136.294867,3.69274468 C136.701492,3.91115494 137.275247,4.44733424 137.562986,4.9154841 C139.123153,5.21266528 139.683124,6.19998709 139.947603,6.76839085"/>
    <path fill="#FFF" d="M128.322512,28.6326904 L128.322512,28.4357631 C129.394211,27.9425498 131.721107,26.905101 132.497314,26.1952677 C132.769546,26.8791425 133.035748,27.9953621 133.115867,28.6398514 C133.823153,28.1878138 134.665695,27.5916612 135.248065,26.8845132 C135.078351,26.3053679 134.723415,25.5275052 134.37451,24.9725283 C135.387627,24.2555339 136.698822,22.9558138 137.475889,21.9479042 C137.793781,22.4500687 138.174561,23.3371367 138.367536,24.0120602 C139.138574,23.3478781 140.07071,22.1672096 140.545394,21.3562272 C140.252486,20.8012503 139.765741,20.142439 139.255737,19.6402744 C140.016436,18.6959186 140.840886,17.0408342 141.084689,16.1850957 C141.518882,16.4419963 142.277859,17.3165324 142.554399,17.7667798 C143.095417,16.7293311 143.421923,15.6498115 143.607145,14.4619819 C143.259101,14.0385882 142.648301,13.5364236 142.076269,13.2660962 C142.258045,12.5983337 142.447573,11.4758481 142.409668,10.7436367 C142.893827,10.9656274 143.555455,11.4668969 143.893161,11.8437441 C143.968972,11.0936302 143.906945,10.3524675 143.72,9.61488527 C143.403832,9.28906012 142.708606,8.86029571 142.28992,8.73497834 C142.245984,8.24086988 142.053009,7.63487091 141.899663,7.30546527 C142.245984,7.38065568 142.927426,7.82642745 143.200519,8.0555792 C142.927426,7.38065568 142.194294,6.71915903 141.628292,6.49895851 C141.456855,6.17850411 141.133794,5.66649317 140.83744,5.37199736 C143.968972,6.47210479 144.344584,8.77973455 144.576326,9.69902693 C145.098391,13.1944863 144.392828,16.2459641 142.892104,19.2553711 C140.990786,23.0766556 138.648383,25.2983534 134.58213,28.6326904 L128.322512,28.6326904 Z"/>
    <path fill="#FFF" d="M136.055716 28.6326904C137.497858 27.5200513 138.481684 26.8191691 139.402622 25.6116468 139.697253 26.2999972 139.85146 27.6516345 139.85146 27.6516345 140.521703 27.0653283 141.907847 25.5239247 142.375639 24.6646056 142.23263 24.1875045 141.916462 23.4508174 141.658875 23.1106703 142.569475 22.1698949 143.468875 20.4611031 143.793658 19.3207151 144.16927 19.7083038 144.543158 20.394864 144.686166 20.8406357 145.269398 19.7306819 145.806109 18.3736739 146.06025 16.8716558 145.860383 16.4348353 145.530431 15.942517 145.161711 15.5692503 145.42619 14.7931778 145.567475 13.6805386 145.545938 12.7684072 145.816447 12.9868175 146.307499 13.6241458 146.55044 14.0761834 146.540102 12.5150871 146.395371 11.5089677 145.491664 10.6702365 145.475295 10.2110379 145.334872 9.42959459 145.066085 8.82986149 146.395371 10.0033691 147.567865 11.489275 147.230159 14.9713075 146.725323 20.222105 143.741969 25.2983534 140.228795 28.6326904L136.055716 28.6326904zM145.75261 28.6326904C146.49608 28.6326904 146.866522 27.308802 147.281763 26.4002511 147.455785 26.8370716 147.542795 27.409951 147.563471 27.9989426 147.781429 27.3320752 148.965984 25.3287876 148.942724 22.487664 149.35538 21.0966412 149.592291 19.5212229 149.650872 18.3387641 150.065251 20.3760664 150.065251 25.2983534 148.150149 28.6326904L145.75261 28.6326904z"/>
    <path fill="#FFF" d="M148.365695,16.4995527 C148.453567,15.9499466 148.330374,15.0646689 147.953039,14.4801529 C147.966823,14.0639202 147.874643,13.0506398 147.793663,12.5986022 C148.579345,13.715717 149.240973,14.8883295 148.986832,17.822546 C148.550916,21.7951065 147.393068,26.4076806 144.453649,28.632959 L143.316476,28.632959 C143.34146,28.632959 143.287186,27.4880953 143.114025,26.8946281 C144.2064,25.7255961 145.394401,23.827038 145.836347,22.4091616 C146.144762,23.061707 146.307585,23.6891889 146.383396,24.468842 C147.15788,23.0438045 147.741111,20.976068 147.909964,19.5626672 C147.805724,19.1195808 147.603272,18.68097 147.389622,18.3542497 C147.654101,17.6623188 147.879812,16.3339548 147.891011,15.6124848 C148.077956,15.8120975 148.271792,16.2542887 148.365695,16.4995527"/>
    <g transform="translate(155.069 24.168)">
      <mask id="logo-united-b" fill="#fff">
        <use xlink:href="#logo-united-a"/>
      </mask>
      <path fill="#FFF" d="M2.58810132,2.38434188 C2.83707318,2.38434188 3.26782036,2.43088833 3.26782036,2.10685343 C3.26782036,1.89560416 2.99903412,1.85890408 2.78624502,1.85890408 L2.26331795,1.85890408 L2.26331795,2.38434188 L2.58810132,2.38434188 Z M3.51851521,3.6178228 L3.18339391,3.6178228 L2.58810132,2.6716767 L2.26331795,2.6716767 L2.26331795,3.6178228 L1.98247079,3.6178228 L1.98247079,1.56798877 L2.84051916,1.56798877 C3.19717782,1.56798877 3.54694452,1.67092803 3.54694452,2.11132905 C3.54694452,2.51055437 3.27298932,2.66183033 2.92322262,2.6716767 L3.51851521,3.6178228 Z M4.18961931,2.60364727 C4.18961931,1.7219501 3.48836291,1.01659236 2.66046684,1.01659236 C1.8291248,1.01659236 1.12097644,1.7219501 1.12097644,2.60364727 C1.12097644,3.49161031 1.8291248,4.19249242 2.66046684,4.19249242 C3.48836291,4.19249242 4.18961931,3.49161031 4.18961931,2.60364727 Z M0.845298253,2.60364727 C0.845298253,1.56351314 1.64390351,0.730152672 2.66046684,0.730152672 C3.67013821,0.730152672 4.46788198,1.56351314 4.46788198,2.60364727 C4.46788198,3.64736189 3.67013821,4.47535162 2.66046684,4.47535162 C1.64390351,4.47535162 0.845298253,3.64736189 0.845298253,2.60364727 Z" mask="url(#logo-united-b)"/>
    </g>
  </g>
</svg>
